<svg width="398" height="287" viewBox="0 0 398 287" fill="none" xmlns="http://www.w3.org/2000/svg">
<path d="M22.7196 192.478C24.0874 188.65 28.299 186.655 32.1265 188.023C35.9539 189.391 37.9478 193.604 36.5801 197.432L20.2718 243.081C21.5268 242.485 22.7807 241.892 24.032 241.298C27.7039 239.555 32.0932 241.119 33.8358 244.792C35.5785 248.465 34.0144 252.856 30.3424 254.599C29.0852 255.195 27.8255 255.792 26.5646 256.389L72.21 272.705C76.0375 274.073 78.0314 278.285 76.6636 282.114C75.2959 285.942 71.0845 287.937 67.2571 286.569L4.88481 264.275C1.05741 262.906 -0.93652 258.694 0.431205 254.865L22.7196 192.478ZM102.481 202.74C106.084 200.859 110.53 202.256 112.411 205.86C114.291 209.465 112.894 213.911 109.291 215.792C96.6563 222.387 83.4846 228.974 69.9433 235.586C66.2908 237.369 61.8842 235.853 60.1012 232.2C58.3182 228.547 59.8337 224.139 63.4862 222.356C76.9506 215.781 89.998 209.256 102.481 202.74ZM176.7 158.267C179.985 155.872 184.588 156.594 186.982 159.88C189.376 163.165 188.654 167.77 185.37 170.164C174.076 178.398 161.516 186.468 147.992 194.439C144.49 196.502 139.979 195.336 137.916 191.833C135.853 188.33 137.019 183.818 140.521 181.754C153.75 173.957 165.889 166.149 176.7 158.267ZM251.582 146.413C255.41 145.044 259.621 147.039 260.989 150.867C262.357 154.696 260.363 158.908 256.535 160.276C240.291 166.083 224.138 169.476 208.316 169.543C204.252 169.56 200.943 166.278 200.926 162.212C200.909 158.147 204.19 154.838 208.255 154.82C222.027 154.763 236.502 151.803 251.582 146.413ZM126.883 118.022C130.141 115.591 134.752 116.263 137.182 119.522C140.417 123.86 144.319 128.098 148.967 132.161C154.789 137.251 160.734 141.376 166.78 144.64C170.357 146.571 171.692 151.036 169.762 154.614C167.831 158.192 163.367 159.527 159.79 157.596C152.722 153.781 145.88 149.015 139.281 143.247C133.883 138.529 129.266 133.531 125.383 128.324C122.953 125.065 123.625 120.453 126.883 118.022ZM229.077 96.1178C230.167 92.2013 234.225 89.91 238.14 91C242.056 92.0901 244.347 96.1487 243.257 100.065C239.253 114.455 230.866 127.831 219.427 140.399C216.691 143.405 212.036 143.624 209.031 140.887C206.025 138.15 205.807 133.494 208.543 130.488C218.949 119.056 225.868 107.652 229.077 96.1178ZM331.199 101.665C334.495 99.2864 339.095 100.031 341.473 103.328C343.851 106.625 343.107 111.226 339.811 113.604C326.528 123.191 313.226 132.002 300 139.655C296.482 141.691 291.98 140.489 289.945 136.969C287.91 133.45 289.112 128.947 292.63 126.912C305.332 119.562 318.215 111.036 331.199 101.665ZM114.72 49.7814C116.164 45.9814 120.415 44.0721 124.214 45.5168C128.013 46.9615 129.922 51.2133 128.478 55.0134C124.507 65.4604 122.864 76.9756 124.379 88.4935C124.909 92.5242 122.072 96.2219 118.042 96.7521C114.013 97.2824 110.316 94.4445 109.786 90.4137C107.925 76.2685 109.962 62.2992 114.72 49.7814ZM385.893 58.4473C388.999 55.8247 393.642 56.2172 396.264 59.3237C398.886 62.4303 398.494 67.0748 395.388 69.6973C389.363 74.7847 383.315 79.812 377.253 84.7435C374.1 87.3088 369.464 86.8313 366.9 83.6773C364.335 80.5233 364.812 75.8871 367.966 73.3218C373.947 68.4556 379.925 63.4863 385.893 58.4473ZM205.301 16.4321C208.065 13.4512 212.721 13.2756 215.702 16.0399C220.368 20.3683 224.802 25.5925 228.951 31.7504C233.648 38.7225 237.355 45.6179 240.087 52.4525C241.597 56.2272 239.761 60.5109 235.987 62.0206C232.213 63.5303 227.93 61.6941 226.421 57.9193C224.125 52.1755 220.937 46.1999 216.745 39.978C213.154 34.6478 209.44 30.31 205.694 26.8354C202.713 24.071 202.538 19.4132 205.301 16.4321ZM176.652 0.00105921C180.716 -0.0672066 184.066 3.17287 184.134 7.23779C184.202 11.3026 180.963 14.6532 176.899 14.7215C166.706 14.8928 156.446 19.3505 147.551 27.1407C144.493 29.8189 139.844 29.5104 137.166 26.4518C134.489 23.3931 134.797 18.7423 137.855 16.0641C148.794 6.48413 162.282 0.242527 176.652 0.00105921Z" fill="white"/>
</svg>
